<?xml version="1.0" encoding="UTF-8" standalone="no"?>
<svg
   xmlns:dc="http://purl.org/dc/elements/1.1/"
   xmlns:cc="http://creativecommons.org/ns#"
   xmlns:rdf="http://www.w3.org/1999/02/22-rdf-syntax-ns#"
   xmlns:svg="http://www.w3.org/2000/svg"
   xmlns="http://www.w3.org/2000/svg"
   viewBox="0 0 2560 1440"
   height="1440"
   width="2560"
   xml:space="preserve"
   id="svg2"
   version="1.1"><metadata
     id="metadata8"><rdf:RDF><cc:Work
         rdf:about=""><dc:format>image/svg+xml</dc:format><dc:type
           rdf:resource="http://purl.org/dc/dcmitype/StillImage" /></cc:Work></rdf:RDF></metadata><defs
     id="defs6"><clipPath
       id="clipPath20"
       clipPathUnits="userSpaceOnUse"><path
         id="path18"
         d="M 0,1080 H 1920 V 0 H 0 Z" /></clipPath></defs><g
     transform="matrix(1.3333333,0,0,-1.3333333,0,1440)"
     id="g10"><path
       id="path12"
       style="fill:#40c0c0;fill-opacity:1;fill-rule:nonzero;stroke:none"
       d="M 0,0 H 1920 V 1080 H 0 Z" /><g
       id="g14"><g
         clip-path="url(#clipPath20)"
         id="g16"><g
           transform="translate(336.3965,741.6724)"
           id="g22"><path
             id="path24"
             style="fill:none;stroke:#0db5ac;stroke-width:2.13400006;stroke-linecap:butt;stroke-linejoin:round;stroke-miterlimit:10;stroke-dasharray:none;stroke-opacity:1"
             d="m 0,0 v 64.187 l 302.864,107.467 c 17.745,6.297 36.38,-6.864 36.38,-25.693 V 117.63" /></g><g
           transform="translate(336.3965,569.9117)"
           id="g26"><path
             id="path28"
             style="fill:none;stroke:#0db5ac;stroke-width:2.13400006;stroke-linecap:butt;stroke-linejoin:round;stroke-miterlimit:10;stroke-dasharray:none;stroke-opacity:1"
             d="M 0,0 V 119.485" /></g><g
           transform="translate(675.6406,749.9498)"
           id="g30"><path
             id="path32"
             style="fill:none;stroke:#0db5ac;stroke-width:2.13400006;stroke-linecap:butt;stroke-linejoin:round;stroke-miterlimit:4;stroke-dasharray:none;stroke-opacity:1"
             d="m 0,0 v -127.939 l -267.766,-93.44" /></g><g
           transform="translate(671.3848,748.7056)"
           id="g34"><path
             id="path36"
             style="fill:#0db5ac;fill-opacity:1;fill-rule:nonzero;stroke:none"
             d="M 0,0 4.256,7.369 8.512,0 Z" /></g><g
           transform="translate(347.0655,455.7594)"
           id="g38"><path
             id="path40"
             style="fill:none;stroke:#0db5ac;stroke-width:2.13400006;stroke-linecap:butt;stroke-linejoin:round;stroke-miterlimit:10;stroke-dasharray:none;stroke-opacity:1"
             d="m 0,0 -37.755,-13.071 c -13.193,-4.568 -26.954,5.23 -26.954,19.191 v 69.317 l 82.253,29.188 c 13.098,4.646 26.851,-5.066 26.851,-18.964 V 16.311 L 30.938,11.735" /></g><g
           transform="translate(297.0909,505.0396)"
           id="g42"><path
             id="path44"
             style="fill:none;stroke:#0db5ac;stroke-width:2.13400006;stroke-linecap:butt;stroke-linejoin:round;stroke-miterlimit:4;stroke-dasharray:none;stroke-opacity:1"
             d="m 0,0 43.341,15.379 c 10.841,3.847 22.223,-4.193 22.223,-15.695 v -74.26 l -109.103,-38.715 v 97.842 l 10.128,3.594" /></g><g
           transform="translate(263.9297,488.7574)"
           id="g46"><path
             id="path48"
             style="fill:#0db5ac;fill-opacity:1;fill-rule:nonzero;stroke:none"
             d="M 0,0 5.522,6.476 -2.846,8.021 Z" /></g><g
           transform="translate(511.3584,850.4908)"
           id="g50"><path
             id="path52"
             style="fill:none;stroke:#0db5ac;stroke-width:2.13400006;stroke-linecap:butt;stroke-linejoin:round;stroke-miterlimit:10;stroke-dasharray:none;stroke-opacity:1"
             d="m 0,0 -0.011,-68.454 -339.244,-120.377 v 22.403" /></g><g
           transform="translate(492.1553,936.9048)"
           id="g54"><path
             id="path56"
             style="fill:none;stroke:#0db5ac;stroke-width:2.13400006;stroke-linecap:butt;stroke-linejoin:round;stroke-miterlimit:10;stroke-dasharray:none;stroke-opacity:1"
             d="M 0,0 19.192,6.4 V -46.79" /></g><g
           transform="translate(172.1035,727.8033)"
           id="g58"><path
             id="path60"
             style="fill:none;stroke:#0db5ac;stroke-width:2.13400006;stroke-linecap:butt;stroke-linejoin:round;stroke-miterlimit:10;stroke-dasharray:none;stroke-opacity:1"
             d="m 0,0 v 74.222 c 0,12.53 7.892,23.702 19.702,27.889 l 256.61,90.988" /></g><g
           transform="translate(312.9258,753.4078)"
           id="g62"><path
             id="path64"
             style="fill:none;stroke:#0db5ac;stroke-width:2.13400006;stroke-linecap:butt;stroke-linejoin:round;stroke-miterlimit:10;stroke-dasharray:none;stroke-opacity:1"
             d="M 0,0 -180.296,-64.011 V 75.61 c 0,12.978 8.172,24.548 20.401,28.888 l 318.843,113.138 0.012,-92.816" /></g><g
           transform="translate(471.875,829.4302)"
           id="g66"><path
             id="path68"
             style="fill:none;stroke:#0db5ac;stroke-width:2.13400006;stroke-linecap:butt;stroke-linejoin:round;stroke-miterlimit:4;stroke-dasharray:none;stroke-opacity:1"
             d="M 0,0 V -19.656 L -113.074,-60.02" /></g><g
           transform="translate(467.6192,828.1841)"
           id="g70"><path
             id="path72"
             style="fill:#0db5ac;fill-opacity:1;fill-rule:nonzero;stroke:none"
             d="M 0,0 4.256,7.371 8.511,0 Z" /></g><g
           transform="translate(591.3721,621.0474)"
           id="g74"><path
             id="path76"
             style="fill:none;stroke:#0db5ac;stroke-width:2.13400006;stroke-linecap:butt;stroke-linejoin:round;stroke-miterlimit:10;stroke-dasharray:none;stroke-opacity:1"
             d="m 0,0 v 152.804 c 0,15.31 9.747,28.922 24.242,33.852 l 106.979,36.386 v -23.205" /></g><g
           transform="translate(722.5928,782.2125)"
           id="g78"><path
             id="path80"
             style="fill:none;stroke:#0db5ac;stroke-width:2.13400006;stroke-linecap:butt;stroke-linejoin:round;stroke-miterlimit:10;stroke-dasharray:none;stroke-opacity:1"
             d="m 0,0 v -210.896 c 0,-18.806 -11.973,-35.525 -29.776,-41.581 l -101.445,-34.502 v 71.489" /></g><g
           transform="translate(628.7109,625.4586)"
           id="g82"><path
             id="path84"
             style="fill:none;stroke:#0db5ac;stroke-width:2.13400006;stroke-linecap:butt;stroke-linejoin:round;stroke-miterlimit:10;stroke-dasharray:none;stroke-opacity:1"
             d="m 0,0 v 144.128 l 98.564,33.523 c 16.023,5.451 32.658,-6.462 32.658,-23.386 V -115.466 L 0,-160.098 v 23.491" /></g><g
           transform="translate(628.7109,528.3043)"
           id="g86"><path
             id="path88"
             style="fill:none;stroke:#0db5ac;stroke-width:2.13400006;stroke-linecap:butt;stroke-linejoin:round;stroke-miterlimit:10;stroke-dasharray:none;stroke-opacity:1"
             d="M 0,0 V 55.946" /></g><g
           transform="translate(1040.5,489.108)"
           id="g90"><path
             id="path92"
             style="fill:none;stroke:#0db5ac;stroke-width:2.13400006;stroke-linecap:butt;stroke-linejoin:round;stroke-miterlimit:4;stroke-dasharray:none;stroke-opacity:1"
             d="m 0,0 v -36.725 l -339.244,-120.377 v 92.248 c 0,20.91 13.168,39.554 32.875,46.547 L 0,90.405 v -37.34" /></g><g
           transform="translate(1036.2441,487.8629)"
           id="g94"><path
             id="path96"
             style="fill:#0db5ac;fill-opacity:1;fill-rule:nonzero;stroke:none"
             d="M 0,0 4.256,7.37 8.512,0 Z" /></g><g
           transform="translate(879.4189,696.8658)"
           id="g98"><path
             id="path100"
             style="fill:none;stroke:#0db5ac;stroke-width:2.13400006;stroke-linecap:butt;stroke-linejoin:round;stroke-miterlimit:10;stroke-dasharray:none;stroke-opacity:1"
             d="M 0,0 -58.655,-21.187 -58.387,114.108 92.589,167.344 92.366,55.081 C 92.339,41.254 83.661,28.923 70.655,24.229 L 33.071,10.668" /></g><g
           transform="translate(99.1143,742.8423)"
           id="g102"><path
             id="path104"
             style="fill:none;stroke:#0db5ac;stroke-width:2.13400006;stroke-linecap:butt;stroke-linejoin:round;stroke-miterlimit:4;stroke-dasharray:none;stroke-opacity:1"
             d="M 0,0 -152.114,-53.445 V 250.781 L 187.13,371.158 187.141,186.594" /></g><g
           transform="translate(96.5283,746.4449)"
           id="g106"><path
             id="path108"
             style="fill:#0db5ac;fill-opacity:1;fill-rule:nonzero;stroke:none"
             d="M 0,0 8.364,-1.571 2.821,-8.03 Z" /></g><g
           transform="translate(286.2549,844.0894)"
           id="g110"><path
             id="path112"
             style="fill:none;stroke:#0db5ac;stroke-width:2.13400006;stroke-linecap:butt;stroke-linejoin:round;stroke-miterlimit:10;stroke-dasharray:none;stroke-opacity:1"
             d="M 0,0 -0.003,-11.199 C -0.008,-25.054 -8.741,-37.403 -21.804,-42.024 L -96.016,-68.278" /></g><g
           transform="translate(896.4883,556.2779)"
           id="g114"><path
             id="path116"
             style="fill:none;stroke:#0db5ac;stroke-width:2.13400006;stroke-linecap:butt;stroke-linejoin:round;stroke-miterlimit:10;stroke-dasharray:none;stroke-opacity:1"
             d="m 0,0 v 181.538 c 0,18.428 11.544,34.88 28.872,41.149 l 25.608,9.265" /></g><g
           transform="translate(1073.4189,528.3043)"
           id="g118"><path
             id="path120"
             style="fill:none;stroke:#0db5ac;stroke-width:2.13400006;stroke-linecap:butt;stroke-linejoin:round;stroke-miterlimit:10;stroke-dasharray:none;stroke-opacity:1"
             d="m 0,0 -176.931,-64.01 v 37.339" /></g><g
           transform="translate(1252.8125,627.3668)"
           id="g122"><path
             id="path124"
             style="fill:none;stroke:#0db5ac;stroke-width:2.13400006;stroke-linecap:butt;stroke-linejoin:round;stroke-miterlimit:10;stroke-dasharray:none;stroke-opacity:1"
             d="M 0,0 V -34.161 L -82.962,-64.175" /></g><g
           transform="translate(1074.6504,833.4205)"
           id="g126"><path
             id="path128"
             style="fill:none;stroke:#0db5ac;stroke-width:2.13400006;stroke-linecap:butt;stroke-linejoin:round;stroke-miterlimit:10;stroke-dasharray:none;stroke-opacity:1"
             d="M 0,0 178.162,64.011 V -112.67" /></g><g
           transform="translate(990.3652,802.483)"
           id="g130"><path
             id="path132"
             style="fill:none;stroke:#0db5ac;stroke-width:2.13400006;stroke-linecap:butt;stroke-linejoin:round;stroke-miterlimit:10;stroke-dasharray:none;stroke-opacity:1"
             d="M 0,0 58.681,21.336" /></g><g
           transform="translate(1155.7305,839.565)"
           id="g134"><path
             id="path136"
             style="fill:none;stroke:#0db5ac;stroke-width:2.13400006;stroke-linecap:butt;stroke-linejoin:round;stroke-miterlimit:4;stroke-dasharray:none;stroke-opacity:1"
             d="m 0,0 v -123.672 l -101.68,-34.584 c -14.494,-4.93 -29.542,5.846 -29.542,21.156 v 94.313" /></g><g
           transform="translate(1151.4746,838.3199)"
           id="g138"><path
             id="path140"
             style="fill:#0db5ac;fill-opacity:1;fill-rule:nonzero;stroke:none"
             d="M 0,0 4.256,7.37 8.512,0 Z" /></g><g
           transform="translate(1024.5088,833.9547)"
           id="g142"><path
             id="path144"
             style="fill:none;stroke:#0db5ac;stroke-width:2.13400006;stroke-linecap:butt;stroke-linejoin:round;stroke-miterlimit:10;stroke-dasharray:none;stroke-opacity:1"
             d="m 0,0 v 141.532 l 131.222,44.631 V 45.32" /></g><g
           transform="translate(1193.0693,861.1588)"
           id="g146"><path
             id="path148"
             style="fill:none;stroke:#0db5ac;stroke-width:2.13400006;stroke-linecap:butt;stroke-linejoin:round;stroke-miterlimit:10;stroke-dasharray:none;stroke-opacity:1"
             d="m 0,0 v -175.138 l -131.221,-44.632 v 25.878" /></g><g
           transform="translate(1169.8506,982.3492)"
           id="g150"><path
             id="path152"
             style="fill:none;stroke:#0db5ac;stroke-width:2.13400006;stroke-linecap:butt;stroke-linejoin:round;stroke-miterlimit:10;stroke-dasharray:none;stroke-opacity:1"
             d="M 0,0 23.219,7.897 V -88.881" /></g><g
           transform="translate(1061.8486,700.5318)"
           id="g154"><path
             id="path156"
             style="fill:none;stroke:#0db5ac;stroke-width:2.13400006;stroke-linecap:butt;stroke-linejoin:round;stroke-miterlimit:10;stroke-dasharray:none;stroke-opacity:1"
             d="m 0,0 v 215.327 c 0,17.777 11.355,33.568 28.209,39.224 l 50.736,17.027" /></g><g
           transform="translate(568.9678,422.6871)"
           id="g158"><path
             id="path160"
             style="fill:none;stroke:#0db5ac;stroke-width:2.13400006;stroke-linecap:butt;stroke-linejoin:round;stroke-miterlimit:4;stroke-dasharray:none;stroke-opacity:1"
             d="M 0,0 24.526,8.535 V -152.733 L -314.718,-273.11 v 161.268 l 273.739,96.994" /></g><g
           transform="translate(528.2363,403.4127)"
           id="g162"><path
             id="path164"
             style="fill:#0db5ac;fill-opacity:1;fill-rule:nonzero;stroke:none"
             d="M 0,0 5.525,6.473 -2.842,8.022 Z" /></g><g
           transform="translate(554.0215,297.691)"
           id="g166"><path
             id="path168"
             style="fill:none;stroke:#0db5ac;stroke-width:2.13400006;stroke-linecap:butt;stroke-linejoin:round;stroke-miterlimit:10;stroke-dasharray:none;stroke-opacity:1"
             d="M 0,0 -339.244,-120.377 V 40.892 L -37.091,148.108 C -18.998,154.527 0,141.11 0,121.913 Z" /></g><g
           transform="translate(20.6123,318.1373)"
           id="g170"><path
             id="path172"
             style="fill:none;stroke:#0db5ac;stroke-width:2.13400006;stroke-linecap:butt;stroke-linejoin:round;stroke-miterlimit:10;stroke-dasharray:none;stroke-opacity:1"
             d="m 0,0 -40.54,-13.869 v 304.225 l 138.923,47.051 c 13.502,4.573 27.504,-5.468 27.504,-19.722 V 42.497 L 26.671,8.534" /></g><g
           transform="translate(162.833,632.0562)"
           id="g174"><path
             id="path176"
             style="fill:none;stroke:#0db5ac;stroke-width:2.13400006;stroke-linecap:butt;stroke-linejoin:round;stroke-miterlimit:4;stroke-dasharray:none;stroke-opacity:1"
             d="m 0,0 37.008,12.534 v -276.846 c 0,-16.367 -10.431,-30.913 -25.932,-36.163 l -140.495,-47.583 v 273.532 c 0,18.347 11.692,34.656 29.07,40.544 l 62.211,21.08" /></g><g
           transform="translate(124.8819,614.7242)"
           id="g178"><path
             id="path180"
             style="fill:#0db5ac;fill-opacity:1;fill-rule:nonzero;stroke:none"
             d="M 0,0 5.614,6.396 -2.731,8.062 Z" /></g><g
           transform="translate(1303.0215,524.9498)"
           id="g182"><path
             id="path184"
             style="fill:none;stroke:#0db5ac;stroke-width:2.13400006;stroke-linecap:butt;stroke-linejoin:round;stroke-miterlimit:10;stroke-dasharray:none;stroke-opacity:1"
             d="m 0,0 v 64.187 l 208.013,73.811 94.85,33.656 c 17.746,6.297 36.381,-6.863 36.381,-25.693 V 117.63" /></g><g
           transform="translate(1303.0215,353.1891)"
           id="g186"><path
             id="path188"
             style="fill:none;stroke:#0db5ac;stroke-width:2.13400006;stroke-linecap:butt;stroke-linejoin:round;stroke-miterlimit:10;stroke-dasharray:none;stroke-opacity:1"
             d="M 0,0 V 119.486" /></g><g
           transform="translate(1642.2656,533.2281)"
           id="g190"><path
             id="path192"
             style="fill:none;stroke:#0db5ac;stroke-width:2.13400006;stroke-linecap:butt;stroke-linejoin:round;stroke-miterlimit:4;stroke-dasharray:none;stroke-opacity:1"
             d="m 0,0 v -127.94 l -267.766,-93.44" /></g><g
           transform="translate(1638.0098,531.983)"
           id="g194"><path
             id="path196"
             style="fill:#0db5ac;fill-opacity:1;fill-rule:nonzero;stroke:none"
             d="M 0,0 4.256,7.369 8.512,0 Z" /></g><g
           transform="translate(1313.6895,239.0367)"
           id="g198"><path
             id="path200"
             style="fill:none;stroke:#0db5ac;stroke-width:2.13400006;stroke-linecap:butt;stroke-linejoin:round;stroke-miterlimit:10;stroke-dasharray:none;stroke-opacity:1"
             d="m 0,0 -37.755,-13.071 c -13.192,-4.568 -26.954,5.23 -26.954,19.191 v 69.318 l 82.254,29.187 c 13.097,4.647 26.85,-5.066 26.85,-18.963 V 16.311 L 30.938,11.735" /></g><g
           transform="translate(1263.7148,288.317)"
           id="g202"><path
             id="path204"
             style="fill:none;stroke:#0db5ac;stroke-width:2.13400006;stroke-linecap:butt;stroke-linejoin:round;stroke-miterlimit:4;stroke-dasharray:none;stroke-opacity:1"
             d="m 0,0 43.342,15.379 c 10.84,3.848 22.222,-4.192 22.222,-15.695 v -74.26 L -43.539,-113.29 v 97.841 l 10.129,3.594" /></g><g
           transform="translate(1230.5547,272.0348)"
           id="g206"><path
             id="path208"
             style="fill:#0db5ac;fill-opacity:1;fill-rule:nonzero;stroke:none"
             d="M 0,0 5.521,6.476 -2.847,8.021 Z" /></g><g
           transform="translate(1477.9834,633.7681)"
           id="g210"><path
             id="path212"
             style="fill:none;stroke:#0db5ac;stroke-width:2.13400006;stroke-linecap:butt;stroke-linejoin:round;stroke-miterlimit:10;stroke-dasharray:none;stroke-opacity:1"
             d="m 0,0 -0.012,-68.454 -339.244,-120.377 v 22.403" /></g><g
           transform="translate(1458.7803,720.1822)"
           id="g214"><path
             id="path216"
             style="fill:none;stroke:#0db5ac;stroke-width:2.13400006;stroke-linecap:butt;stroke-linejoin:round;stroke-miterlimit:10;stroke-dasharray:none;stroke-opacity:1"
             d="M 0,0 19.191,6.4 V -46.79" /></g><g
           transform="translate(1138.7275,511.0816)"
           id="g218"><path
             id="path220"
             style="fill:none;stroke:#0db5ac;stroke-width:2.13400006;stroke-linecap:butt;stroke-linejoin:round;stroke-miterlimit:10;stroke-dasharray:none;stroke-opacity:1"
             d="m 0,0 v 74.221 c 0,12.53 7.893,23.702 19.702,27.889 l 256.61,90.988" /></g><g
           transform="translate(1373.7549,731.3472)"
           id="g222"><path
             id="path224"
             style="fill:none;stroke:#0db5ac;stroke-width:2.13400006;stroke-linecap:butt;stroke-linejoin:round;stroke-miterlimit:10;stroke-dasharray:none;stroke-opacity:1"
             d="m 0,0 64.744,22.974 0.011,-92.816" /></g><g
           transform="translate(1279.5508,536.6851)"
           id="g226"><path
             id="path228"
             style="fill:none;stroke:#0db5ac;stroke-width:2.13400006;stroke-linecap:butt;stroke-linejoin:round;stroke-miterlimit:10;stroke-dasharray:none;stroke-opacity:1"
             d="M 0,0 -180.296,-64.01 V 75.611 c 0,12.977 8.172,24.547 20.401,28.887 l 213.474,75.749" /></g><g
           transform="translate(1438.499,612.7076)"
           id="g230"><path
             id="path232"
             style="fill:none;stroke:#0db5ac;stroke-width:2.13400006;stroke-linecap:butt;stroke-linejoin:round;stroke-miterlimit:4;stroke-dasharray:none;stroke-opacity:1"
             d="M 0,0 V -19.655 L -113.074,-60.02" /></g><g
           transform="translate(1434.2432,611.4625)"
           id="g234"><path
             id="path236"
             style="fill:#0db5ac;fill-opacity:1;fill-rule:nonzero;stroke:none"
             d="M 0,0 4.256,7.37 8.512,0 Z" /></g><g
           transform="translate(1557.9961,404.3248)"
           id="g238"><path
             id="path240"
             style="fill:none;stroke:#0db5ac;stroke-width:2.13400006;stroke-linecap:butt;stroke-linejoin:round;stroke-miterlimit:10;stroke-dasharray:none;stroke-opacity:1"
             d="m 0,0 v 152.805 c 0,15.309 9.748,28.922 24.242,33.851 l 106.98,36.386 v -23.204" /></g><g
           transform="translate(1689.2178,565.4898)"
           id="g242"><path
             id="path244"
             style="fill:none;stroke:#0db5ac;stroke-width:2.13400006;stroke-linecap:butt;stroke-linejoin:round;stroke-miterlimit:10;stroke-dasharray:none;stroke-opacity:1"
             d="m 0,0 v -210.896 c 0,-18.806 -11.974,-35.525 -29.777,-41.581 l -101.445,-34.502 v 71.49" /></g><g
           transform="translate(1595.335,408.7359)"
           id="g246"><path
             id="path248"
             style="fill:none;stroke:#0db5ac;stroke-width:2.13400006;stroke-linecap:butt;stroke-linejoin:round;stroke-miterlimit:10;stroke-dasharray:none;stroke-opacity:1"
             d="m 0,0 v 144.128 l 98.564,33.524 c 16.024,5.45 32.658,-6.463 32.658,-23.387 V -115.466 L 0,-160.098 v 23.492" /></g><g
           transform="translate(1595.335,311.5826)"
           id="g250"><path
             id="path252"
             style="fill:none;stroke:#0db5ac;stroke-width:2.13400006;stroke-linecap:butt;stroke-linejoin:round;stroke-miterlimit:10;stroke-dasharray:none;stroke-opacity:1"
             d="M 0,0 V 55.945" /></g><g
           transform="translate(2007.125,272.3853)"
           id="g254"><path
             id="path256"
             style="fill:none;stroke:#0db5ac;stroke-width:2.13400006;stroke-linecap:butt;stroke-linejoin:round;stroke-miterlimit:4;stroke-dasharray:none;stroke-opacity:1"
             d="m 0,0 v -36.725 l -339.244,-120.377 v 92.247 c 0,20.912 13.168,39.556 32.874,46.548 L 0,90.405 v -37.34" /></g><g
           transform="translate(1846.043,480.1432)"
           id="g258"><path
             id="path260"
             style="fill:none;stroke:#0db5ac;stroke-width:2.13400006;stroke-linecap:butt;stroke-linejoin:round;stroke-miterlimit:10;stroke-dasharray:none;stroke-opacity:1"
             d="M 0,0 -58.654,-21.187 -58.386,114.108 92.59,167.344 92.367,55.081 C 92.34,41.254 83.662,28.923 70.656,24.23 L 33.072,10.668" /></g><g
           transform="translate(1863.1123,339.5553)"
           id="g262"><path
             id="path264"
             style="fill:none;stroke:#0db5ac;stroke-width:2.13400006;stroke-linecap:butt;stroke-linejoin:round;stroke-miterlimit:10;stroke-dasharray:none;stroke-opacity:1"
             d="m 0,0 v 181.538 c 0,18.428 11.544,34.88 28.872,41.149 l 25.608,9.265" /></g><g
           transform="translate(2041.2744,616.6988)"
           id="g266"><path
             id="path268"
             style="fill:none;stroke:#0db5ac;stroke-width:2.13400006;stroke-linecap:butt;stroke-linejoin:round;stroke-miterlimit:10;stroke-dasharray:none;stroke-opacity:1"
             d="m 0,0 178.163,64.01 v -304.226 l -356.325,-128.911 v 37.339" /></g><g
           transform="translate(1535.5918,205.9654)"
           id="g270"><path
             id="path272"
             style="fill:none;stroke:#0db5ac;stroke-width:2.13400006;stroke-linecap:butt;stroke-linejoin:round;stroke-miterlimit:4;stroke-dasharray:none;stroke-opacity:1"
             d="m 0,0 24.527,8.534 v -161.268 l -339.244,-120.377 v 161.268 l 273.738,96.995" /></g><g
           transform="translate(1494.8613,186.69)"
           id="g274"><path
             id="path276"
             style="fill:#0db5ac;fill-opacity:1;fill-rule:nonzero;stroke:none"
             d="M 0,0 5.525,6.473 -2.843,8.022 Z" /></g><g
           transform="translate(1520.6455,80.9684)"
           id="g278"><path
             id="path280"
             style="fill:none;stroke:#0db5ac;stroke-width:2.13400006;stroke-linecap:butt;stroke-linejoin:round;stroke-miterlimit:10;stroke-dasharray:none;stroke-opacity:1"
             d="M 0,0 -339.244,-120.377 V 40.893 L -37.09,148.108 C -18.998,154.528 0,141.11 0,121.913 Z" /></g><g
           transform="translate(987.2363,101.4146)"
           id="g282"><path
             id="path284"
             style="fill:none;stroke:#0db5ac;stroke-width:2.13400006;stroke-linecap:butt;stroke-linejoin:round;stroke-miterlimit:10;stroke-dasharray:none;stroke-opacity:1"
             d="m 0,0 -40.54,-13.869 v 304.225 l 138.923,47.052 c 13.503,4.572 27.505,-5.468 27.505,-19.723 V 42.498 L 26.671,8.535" /></g><g
           transform="translate(1000.0391,290.399)"
           id="g286"><path
             id="path288"
             style="fill:none;stroke:#0db5ac;stroke-width:2.13400006;stroke-linecap:butt;stroke-linejoin:round;stroke-miterlimit:4;stroke-dasharray:none;stroke-opacity:1"
             d="m 0,0 v 50.408 c 0,18.348 11.692,34.656 29.07,40.545 l 62.211,21.08" /></g><g
           transform="translate(1091.5068,398.0016)"
           id="g290"><path
             id="path292"
             style="fill:#0db5ac;fill-opacity:1;fill-rule:nonzero;stroke:none"
             d="M 0,0 5.614,6.396 -2.731,8.062 Z" /></g><g
           transform="translate(1129.457,415.3336)"
           id="g294"><path
             id="path296"
             style="fill:none;stroke:#0db5ac;stroke-width:2.13400006;stroke-linecap:butt;stroke-linejoin:round;stroke-miterlimit:4;stroke-dasharray:none;stroke-opacity:1"
             d="m 0,0 37.009,12.534 v -276.846 c 0,-16.367 -10.431,-30.912 -25.933,-36.162 l -140.494,-47.584 v 141.099" /></g><g
           transform="translate(1004.2939,207.1295)"
           id="g298"><path
             id="path300"
             style="fill:#0db5ac;fill-opacity:1;fill-rule:nonzero;stroke:none"
             d="M 0,0 -4.255,7.37 -8.511,0 Z" /></g><g
           transform="translate(970.6377,243.7115)"
           id="g302"><path
             id="path304"
             style="fill:none;stroke:#0db5ac;stroke-width:2.13400006;stroke-linecap:butt;stroke-linejoin:round;stroke-miterlimit:10;stroke-dasharray:none;stroke-opacity:1"
             d="m 0,0 35.615,12.638 c 17.746,6.297 36.381,-6.864 36.381,-25.694 v -85.15" /></g><g
           transform="translate(703.3896,84.6959)"
           id="g306"><path
             id="path308"
             style="fill:none;stroke:#0db5ac;stroke-width:2.13400006;stroke-linecap:butt;stroke-linejoin:round;stroke-miterlimit:10;stroke-dasharray:none;stroke-opacity:1"
             d="m 0,0 v 64.186 l 214.04,75.95" /></g><g
           transform="translate(703.3896,-87.0658)"
           id="g310"><path
             id="path312"
             style="fill:none;stroke:#0db5ac;stroke-width:2.13400006;stroke-linecap:butt;stroke-linejoin:round;stroke-miterlimit:10;stroke-dasharray:none;stroke-opacity:1"
             d="M 0,0 V 119.486" /></g><g
           transform="translate(1042.6338,52.4019)"
           id="g314"><path
             id="path316"
             style="fill:none;stroke:#0db5ac;stroke-width:2.13400006;stroke-linecap:butt;stroke-linejoin:round;stroke-miterlimit:4;stroke-dasharray:none;stroke-opacity:1"
             d="m 0,0 v -87.368 l -267.766,-93.441" /></g><g
           transform="translate(1038.3789,51.1568)"
           id="g318"><path
             id="path320"
             style="fill:#0db5ac;fill-opacity:1;fill-rule:nonzero;stroke:none"
             d="M 0,0 4.255,7.37 8.511,0 Z" /></g><g
           transform="translate(878.3516,193.5133)"
           id="g322"><path
             id="path324"
             style="fill:none;stroke:#0db5ac;stroke-width:2.13400006;stroke-linecap:butt;stroke-linejoin:round;stroke-miterlimit:10;stroke-dasharray:none;stroke-opacity:1"
             d="m 0,0 -0.011,-68.454 -339.244,-120.377 v 22.404" /></g><g
           transform="translate(859.1484,279.9273)"
           id="g326"><path
             id="path328"
             style="fill:none;stroke:#0db5ac;stroke-width:2.13400006;stroke-linecap:butt;stroke-linejoin:round;stroke-miterlimit:10;stroke-dasharray:none;stroke-opacity:1"
             d="M 0,0 19.192,6.401 V -46.79" /></g><g
           transform="translate(539.0967,70.8268)"
           id="g330"><path
             id="path332"
             style="fill:none;stroke:#0db5ac;stroke-width:2.13400006;stroke-linecap:butt;stroke-linejoin:round;stroke-miterlimit:10;stroke-dasharray:none;stroke-opacity:1"
             d="m 0,0 v 74.221 c 0,12.53 7.892,23.702 19.702,27.889 l 256.61,90.988" /></g><g
           transform="translate(679.9189,96.4303)"
           id="g334"><path
             id="path336"
             style="fill:none;stroke:#0db5ac;stroke-width:2.13400006;stroke-linecap:butt;stroke-linejoin:round;stroke-miterlimit:10;stroke-dasharray:none;stroke-opacity:1"
             d="M 0,0 -180.296,-64.01 V 75.611 c 0,12.977 8.172,24.547 20.401,28.887 l 318.843,113.138 0.012,-92.816" /></g><g
           transform="translate(838.8672,172.4527)"
           id="g338"><path
             id="path340"
             style="fill:none;stroke:#0db5ac;stroke-width:2.13400006;stroke-linecap:butt;stroke-linejoin:round;stroke-miterlimit:4;stroke-dasharray:none;stroke-opacity:1"
             d="M 0,0 V -19.655 L -113.073,-60.02" /></g><g
           transform="translate(834.6123,171.2076)"
           id="g342"><path
             id="path344"
             style="fill:#0db5ac;fill-opacity:1;fill-rule:nonzero;stroke:none"
             d="M 0,0 4.255,7.37 8.511,0 Z" /></g><g
           transform="translate(1657.2793,972.2945)"
           id="g346"><path
             id="path348"
             style="fill:none;stroke:#0db5ac;stroke-width:2.13400006;stroke-linecap:butt;stroke-linejoin:round;stroke-miterlimit:10;stroke-dasharray:none;stroke-opacity:1"
             d="M 0,0 V 119.486" /></g><g
           transform="translate(1996.5234,1152.3336)"
           id="g350"><path
             id="path352"
             style="fill:none;stroke:#0db5ac;stroke-width:2.13400006;stroke-linecap:butt;stroke-linejoin:round;stroke-miterlimit:4;stroke-dasharray:none;stroke-opacity:1"
             d="m 0,0 v -127.94 l -267.766,-93.44" /></g><g
           transform="translate(1667.9473,858.1422)"
           id="g354"><path
             id="path356"
             style="fill:none;stroke:#0db5ac;stroke-width:2.13400006;stroke-linecap:butt;stroke-linejoin:round;stroke-miterlimit:10;stroke-dasharray:none;stroke-opacity:1"
             d="m 0,0 -37.755,-13.071 c -13.192,-4.568 -26.954,5.23 -26.954,19.191 v 69.318 l 82.254,29.187 c 13.097,4.647 26.85,-5.066 26.85,-18.963 V 16.311 L 30.938,11.735" /></g><g
           transform="translate(1617.9727,907.4224)"
           id="g358"><path
             id="path360"
             style="fill:none;stroke:#0db5ac;stroke-width:2.13400006;stroke-linecap:butt;stroke-linejoin:round;stroke-miterlimit:4;stroke-dasharray:none;stroke-opacity:1"
             d="m 0,0 43.342,15.379 c 10.84,3.847 22.222,-4.192 22.222,-15.694 V -74.576 L -43.539,-113.29 v 97.841 l 10.129,3.594" /></g><g
           transform="translate(1584.8115,891.1402)"
           id="g362"><path
             id="path364"
             style="fill:#0db5ac;fill-opacity:1;fill-rule:nonzero;stroke:none"
             d="M 0,0 5.522,6.476 -2.846,8.021 Z" /></g><g
           transform="translate(1575.1328,702.1968)"
           id="g366"><path
             id="path368"
             style="fill:none;stroke:#0db5ac;stroke-width:2.13400006;stroke-linecap:butt;stroke-linejoin:round;stroke-miterlimit:4;stroke-dasharray:none;stroke-opacity:1"
             d="M 0,0 V 21.031 L 249.715,109.56" /></g><g
           transform="translate(1825.0967,807.3287)"
           id="g370"><path
             id="path372"
             style="fill:#0db5ac;fill-opacity:1;fill-rule:nonzero;stroke:none"
             d="M 0,0 5.524,6.474 -2.845,8.022 Z" /></g><g
           transform="translate(1575.1328,607.6304)"
           id="g374"><path
             id="path376"
             style="fill:none;stroke:#0db5ac;stroke-width:2.13400006;stroke-linecap:butt;stroke-linejoin:round;stroke-miterlimit:4;stroke-dasharray:none;stroke-opacity:1"
             d="M 0,0 V 54.446" /></g><g
           transform="translate(1579.3877,660.8316)"
           id="g378"><path
             id="path380"
             style="fill:#0db5ac;fill-opacity:1;fill-rule:nonzero;stroke:none"
             d="M 0,0 -4.255,7.37 -8.511,0 Z" /></g><g
           transform="translate(1865.8262,826.605)"
           id="g382"><path
             id="path384"
             style="fill:none;stroke:#0db5ac;stroke-width:2.13400006;stroke-linecap:butt;stroke-linejoin:round;stroke-miterlimit:10;stroke-dasharray:none;stroke-opacity:1"
             d="m 0,0 24.526,8.534 v -178.099 l -155.323,-55.173" /></g><g
           transform="translate(1535.6592,690.9254)"
           id="g386"><path
             id="path388"
             style="fill:none;stroke:#0db5ac;stroke-width:2.13400006;stroke-linecap:butt;stroke-linejoin:round;stroke-miterlimit:10;stroke-dasharray:none;stroke-opacity:1"
             d="m 0,0 v 50.041 l 278.13,98.75 c 18.093,6.42 37.091,-6.998 37.091,-26.195 V 0.683" /></g><g
           transform="translate(1535.6592,579.6968)"
           id="g390"><path
             id="path392"
             style="fill:none;stroke:#0db5ac;stroke-width:2.13400006;stroke-linecap:butt;stroke-linejoin:round;stroke-miterlimit:10;stroke-dasharray:none;stroke-opacity:1"
             d="M 0,0 V 76.835" /></g><g
           transform="translate(1300.9541,729.2496)"
           id="g394"><path
             id="path396"
             style="fill:none;stroke:#0db5ac;stroke-width:2.13400006;stroke-linecap:butt;stroke-linejoin:round;stroke-miterlimit:10;stroke-dasharray:none;stroke-opacity:1"
             d="m 0,0 v 281.627 l 138.923,47.052 c 13.503,4.572 27.505,-5.468 27.505,-19.724 V 15.666" /></g><g
           transform="translate(1354.2969,704.1793)"
           id="g398"><path
             id="path400"
             style="fill:none;stroke:#0db5ac;stroke-width:2.13400006;stroke-linecap:butt;stroke-linejoin:round;stroke-miterlimit:4;stroke-dasharray:none;stroke-opacity:1"
             d="m 0,0 v 255.733 c 0,18.348 11.692,34.657 29.07,40.545 l 62.211,21.08" /></g><g
           transform="translate(1445.7646,1017.107)"
           id="g402"><path
             id="path404"
             style="fill:#0db5ac;fill-opacity:1;fill-rule:nonzero;stroke:none"
             d="M 0,0 5.614,6.396 -2.731,8.062 Z" /></g><g
           transform="translate(1483.7148,1034.4391)"
           id="g406"><path
             id="path408"
             style="fill:none;stroke:#0db5ac;stroke-width:2.13400006;stroke-linecap:butt;stroke-linejoin:round;stroke-miterlimit:10;stroke-dasharray:none;stroke-opacity:1"
             d="m 0,0 37.009,12.534 v -276.847 c 0,-16.366 -10.431,-30.911 -25.933,-36.162" /></g><g
           transform="translate(842.4375,1019.5025)"
           id="g410"><path
             id="path412"
             style="fill:none;stroke:#0db5ac;stroke-width:2.13400006;stroke-linecap:butt;stroke-linejoin:round;stroke-miterlimit:10;stroke-dasharray:none;stroke-opacity:1"
             d="M 0,0 V 119.485" /></g><g
           transform="translate(1181.6826,1199.5406)"
           id="g414"><path
             id="path416"
             style="fill:none;stroke:#0db5ac;stroke-width:2.13400006;stroke-linecap:butt;stroke-linejoin:round;stroke-miterlimit:4;stroke-dasharray:none;stroke-opacity:1"
             d="m 0,0 v -127.939 l -267.767,-93.44" /></g><g
           transform="translate(853.1064,905.3502)"
           id="g418"><path
             id="path420"
             style="fill:none;stroke:#0db5ac;stroke-width:2.13400006;stroke-linecap:butt;stroke-linejoin:round;stroke-miterlimit:10;stroke-dasharray:none;stroke-opacity:1"
             d="m 0,0 -37.755,-13.071 c -13.193,-4.569 -26.954,5.23 -26.954,19.191 v 69.318 l 82.253,29.186 c 13.098,4.647 26.851,-5.065 26.851,-18.963 V 16.311 L 30.938,11.735" /></g><g
           transform="translate(803.1318,954.6304)"
           id="g422"><path
             id="path424"
             style="fill:none;stroke:#0db5ac;stroke-width:2.13400006;stroke-linecap:butt;stroke-linejoin:round;stroke-miterlimit:4;stroke-dasharray:none;stroke-opacity:1"
             d="m 0,0 43.341,15.379 c 10.841,3.847 22.223,-4.192 22.223,-15.695 v -74.26 l -109.103,-38.715 v 97.842 l 10.128,3.594" /></g><g
           transform="translate(769.9707,938.3482)"
           id="g426"><path
             id="path428"
             style="fill:#0db5ac;fill-opacity:1;fill-rule:nonzero;stroke:none"
             d="M 0,0 5.522,6.475 -2.847,8.021 Z" /></g><g
           transform="translate(126.0508,170.5758)"
           id="g430"><path
             id="path432"
             style="fill:none;stroke:#0db5ac;stroke-width:2.13400006;stroke-linecap:butt;stroke-linejoin:round;stroke-miterlimit:10;stroke-dasharray:none;stroke-opacity:1"
             d="M 0,0 V 119.486" /></g><g
           transform="translate(444.9864,191.9244)"
           id="g434"><path
             id="path436"
             style="fill:none;stroke:#0db5ac;stroke-width:2.13400006;stroke-linecap:butt;stroke-linejoin:round;stroke-miterlimit:10;stroke-dasharray:none;stroke-opacity:1"
             d="m 0,0 v -59.474 l -267.766,-93.439" /></g><g
           transform="translate(444.9864,338.7115)"
           id="g438"><path
             id="path440"
             style="fill:none;stroke:#0db5ac;stroke-width:2.13400006;stroke-linecap:butt;stroke-linejoin:round;stroke-miterlimit:4;stroke-dasharray:none;stroke-opacity:1"
             d="M 0,0 V -54.713" /></g><g
           transform="translate(440.7305,337.4674)"
           id="g442"><path
             id="path444"
             style="fill:#0db5ac;fill-opacity:1;fill-rule:nonzero;stroke:none"
             d="M 0,0 4.256,7.369 8.512,0 Z" /></g><g
           transform="translate(617.918,1083.4362)"
           id="g446"><path
             id="path448"
             style="fill:none;stroke:#0db5ac;stroke-width:2.13400006;stroke-linecap:butt;stroke-linejoin:round;stroke-miterlimit:10;stroke-dasharray:none;stroke-opacity:1"
             d="M 0,0 V -157.889" /></g><g
           transform="translate(362.6553,963.942)"
           id="g450"><path
             id="path452"
             style="fill:none;stroke:#0db5ac;stroke-width:2.13400006;stroke-linecap:butt;stroke-linejoin:round;stroke-miterlimit:10;stroke-dasharray:none;stroke-opacity:1"
             d="m 0,0 v 59.474 l 267.766,93.439" /></g><g
           transform="translate(136.7188,56.4244)"
           id="g454"><path
             id="path456"
             style="fill:none;stroke:#0db5ac;stroke-width:2.13400006;stroke-linecap:butt;stroke-linejoin:round;stroke-miterlimit:10;stroke-dasharray:none;stroke-opacity:1"
             d="m 0,0 -37.755,-13.072 c -13.192,-4.568 -26.954,5.23 -26.954,19.192 v 69.318 l 82.254,29.186 c 13.097,4.647 26.85,-5.065 26.85,-18.963 V 16.311 L 30.938,11.735" /></g><g
           transform="translate(86.7442,105.7047)"
           id="g458"><path
             id="path460"
             style="fill:none;stroke:#0db5ac;stroke-width:2.13400006;stroke-linecap:butt;stroke-linejoin:round;stroke-miterlimit:4;stroke-dasharray:none;stroke-opacity:1"
             d="m 0,0 43.342,15.379 c 10.84,3.847 22.222,-4.192 22.222,-15.695 v -74.261 l -109.103,-38.714 v 97.842 l 10.129,3.594" /></g><g
           transform="translate(53.583,89.4225)"
           id="g462"><path
             id="path464"
             style="fill:#0db5ac;fill-opacity:1;fill-rule:nonzero;stroke:none"
             d="M 0,0 5.522,6.475 -2.846,8.021 Z" /></g><g
           transform="translate(1838.2676,36.3404)"
           id="g466"><path
             id="path468"
             style="fill:none;stroke:#0db5ac;stroke-width:2.13400006;stroke-linecap:butt;stroke-linejoin:round;stroke-miterlimit:10;stroke-dasharray:none;stroke-opacity:1"
             d="m 0,0 -37.755,-13.071 c -13.192,-4.569 -26.953,5.23 -26.953,19.191 v 69.318 l 82.253,29.186 c 13.098,4.647 26.851,-5.065 26.851,-18.963 V 16.311 L 30.938,11.735" /></g><g
           transform="translate(1788.293,85.6207)"
           id="g470"><path
             id="path472"
             style="fill:none;stroke:#0db5ac;stroke-width:2.13400006;stroke-linecap:butt;stroke-linejoin:round;stroke-miterlimit:4;stroke-dasharray:none;stroke-opacity:1"
             d="m 0,0 43.342,15.379 c 10.84,3.847 22.223,-4.192 22.223,-15.695 v -74.26 l -109.104,-38.715 v 97.842 l 10.129,3.594" /></g><g
           transform="translate(1755.1328,69.3385)"
           id="g474"><path
             id="path476"
             style="fill:#0db5ac;fill-opacity:1;fill-rule:nonzero;stroke:none"
             d="M 0,0 5.522,6.475 -2.847,8.021 Z" /></g></g></g></g></svg>